<?xml version="1.0" encoding="utf-8"?>
<!-- Generator: Adobe Illustrator 16.0.0, SVG Export Plug-In . SVG Version: 6.00 Build 0)  -->
<!DOCTYPE svg PUBLIC "-//W3C//DTD SVG 1.1//EN" "http://www.w3.org/Graphics/SVG/1.1/DTD/svg11.dtd">
<svg version="1.1" id="Layer_1" xmlns="http://www.w3.org/2000/svg" xmlns:xlink="http://www.w3.org/1999/xlink" x="0px" y="0px"
	 width="612px" height="792px" viewBox="0 0 612 792" enable-background="new 0 0 612 792" xml:space="preserve">
<path id="bg" fill="#FFFFFF" stroke="#000000" stroke-miterlimit="10" d="M612,596.696c0,56.1-45.9,102-102,102H102
	c-56.1,0-102-45.9-102-102v-408c0-56.1,45.9-102,102-102h408c56.1,0,102,45.9,102,102V596.696z"/>
<path fill-rule="evenodd" clip-rule="evenodd" fill="#FD5DE4" d="M60.929,562.055c26.469,7.605,50.028,16.314,75.374,13.305
	c13.497-1.6,26.73-3.948,39.106-9.867c15.748-7.532,22.173-22.186,23.205-37.508c0.868-12.855-13.443-13.734-22.61-18.261
	c-43.583-21.509-84.886-46.557-113.539-87.085c-37.229-52.654-33.951-107.429-0.72-159.816
	c31.204-49.2,71.575-90.257,120.854-122.609c14.5-9.516,17.755-4.899,21.056,7.781c2.912,11.193,4.845,22.751,8.875,33.525
	c16.842,45.066,16.704,81.609-25.618,118.345c-45.31,39.333-31.998,94.091,21.263,114.573c6.19,2.383,11.486,8.581,17.642,9.323
	c43.915,5.296,57.999,33.061,63.899,73.459c5.368,36.759,18.624,72.399,28.887,108.394c3.493,12.254,2.733,18.583-12.544,21.441
	c-65.251,12.209-130.335,25.404-195.195,39.548c-14.441,3.147-20.668,1.628-24.353-13.689
	C79.404,623.379,70.164,594.361,60.929,562.055z"/>
<path fill-rule="evenodd" clip-rule="evenodd" fill="#05B3FC" d="M228.746,126.938c64.264,3.136,122.804,23.188,175.872,53.81
	c92.479,53.375,102.335,126.08,57.763,219.802c-9.471,19.898-22.309,38.079-36.361,55.382c-5.942,7.32-19.122,14.33-9.925,26.8
	c8.185,11.087,19.15,19.258,34.332,18.237c31.048-2.092,58.603-13.468,80.275-35.454c19.101-19.389,25.82-12.753,30.157,9.952
	c4.157,21.748,9.165,43.405,15.255,64.688c3.607,12.6-0.68,17.556-12.208,20.471c-66.061,16.695-132.165,33.236-197.941,50.992
	c-13.259,3.583-16.876-1.095-19.484-11.977c-12.374-51.6-24.646-103.232-37.745-154.65c-3.068-12.056,0.624-19.15,8.96-27.605
	c16.185-16.404,33.282-32.278,44.697-52.885c18.713-33.787,10.361-66.904-22.225-87.614c-18.9-12.011-39.065-22.417-60.981-25.462
	c-19.329-2.688-25.201-12.793-28.771-29.619c-6.399-30.168-14.639-59.951-22.06-89.905
	C228.136,131.01,228.485,129.983,228.746,126.938z"/>
</svg>
